<?xml version="1.0" encoding="UTF-8" standalone="no"?>
<svg
   xmlns:dc="http://purl.org/dc/elements/1.1/"
   xmlns:cc="http://creativecommons.org/ns#"
   xmlns:rdf="http://www.w3.org/1999/02/22-rdf-syntax-ns#"
   xmlns:svg="http://www.w3.org/2000/svg"
   xmlns="http://www.w3.org/2000/svg"
   viewBox="0 0 234.33333 86.933334"
   height="86.933334"
   width="234.33333"
   xml:space="preserve"
   id="svg2"
   version="1.1"><metadata
     id="metadata8"><rdf:RDF><cc:Work
         rdf:about=""><dc:format>image/svg+xml</dc:format><dc:type
           rdf:resource="http://purl.org/dc/dcmitype/StillImage" /></cc:Work></rdf:RDF></metadata><defs
     id="defs6"><clipPath
       id="clipPath18"
       clipPathUnits="userSpaceOnUse"><path
         id="path16"
         d="m 0.006,54.331 29.949,-0.057 c 6.586,0 11.925,-5.339 11.925,-11.925 v 0 c 0,-6.587 -5.339,-11.925 -11.925,-11.925 v 0 L 0.006,30.482 V 19.913 l 29.949,-0.059 c 12.423,0 22.494,10.071 22.494,22.495 v 0 c 0,12.423 -10.071,22.494 -22.494,22.494 v 0 L 0.006,64.901 Z M 161.674,64.843 141.428,38.299 121.18,64.843 h -14.068 l 34.316,-44.989 34.315,44.989 z M 53.563,19.854 h 14.069 l 20.247,26.545 20.247,-26.545 h 14.069 L 87.879,64.843 Z M 76.648,15.022 87.879,0.299 99.109,15.022 87.879,29.744 Z" /></clipPath><linearGradient
       id="linearGradient30"
       spreadMethod="pad"
       gradientTransform="matrix(0,-64.602425,-64.602425,0,87.875015,64.901215)"
       gradientUnits="userSpaceOnUse"
       y2="0"
       x2="1"
       y1="0"
       x1="0"><stop
         id="stop24"
         offset="0"
         style="stop-opacity:1;stop-color:#7925cf" /><stop
         id="stop26"
         offset="0.73696312"
         style="stop-opacity:1;stop-color:#43cbff" /><stop
         id="stop28"
         offset="1"
         style="stop-opacity:1;stop-color:#43cbff" /></linearGradient></defs><g
     transform="matrix(1.3333333,0,0,-1.3333333,0,86.933333)"
     id="g10"><g
       id="g12"><g
         clip-path="url(#clipPath18)"
         id="g14"><g
           id="g20"><g
             id="g22"><path
               id="path32"
               style="fill:url(#linearGradient30);stroke:none"
               d="m 0.006,54.331 29.949,-0.057 c 6.586,0 11.925,-5.339 11.925,-11.925 v 0 c 0,-6.587 -5.339,-11.925 -11.925,-11.925 v 0 L 0.006,30.482 V 19.913 l 29.949,-0.059 c 12.423,0 22.494,10.071 22.494,22.495 v 0 c 0,12.423 -10.071,22.494 -22.494,22.494 v 0 L 0.006,64.901 Z M 161.674,64.843 141.428,38.299 121.18,64.843 h -14.068 l 34.316,-44.989 34.315,44.989 z M 53.563,19.854 h 14.069 l 20.247,26.545 20.247,-26.545 h 14.069 L 87.879,64.843 Z M 76.648,15.022 87.879,0.299 99.109,15.022 87.879,29.744 Z" /></g></g></g></g></g></svg>