<?xml version="1.0" encoding="UTF-8"?>
<svg width="87px" height="32px" viewBox="0 0 87 32" version="1.1" xmlns="http://www.w3.org/2000/svg" xmlns:xlink="http://www.w3.org/1999/xlink">
    <!-- Generator: Sketch 49.1 (51147) - http://www.bohemiancoding.com/sketch -->
    <title>Page 1</title>
    <desc>Created with Sketch.</desc>
    <defs>
        <polygon id="path-1" points="0 0.000304126382 86.1127767 0.000304126382 86.1127767 31.6554202 0 31.6554202"></polygon>
    </defs>
    <g id="Page-1" stroke="none" stroke-width="1" fill="none" fill-rule="evenodd">
        <g id="Mission-summary-screen" transform="translate(-174.000000, -528.000000)">
            <g id="Page-1" transform="translate(174.000000, 528.449481)">
                <mask id="mask-2" fill="white">
                    <use xlink:href="#path-1"></use>
                </mask>
                <g id="Clip-2"></g>
                <path d="M0,5.17939393 L14.6747062,5.20737356 C17.9014871,5.20737356 20.516974,7.82346869 20.516974,11.0508579 C20.516974,14.2776388 17.9014871,16.8943421 14.6747062,16.8943421 L0,16.8657543 L0,22.0450265 L14.6747062,22.0730062 C20.7620998,22.0730062 25.6968545,17.1382515 25.6968545,11.0508579 C25.6968545,4.9634642 20.7620998,0.0281012777 14.6747062,0.0281012777 L0,0.000121650553 L0,5.17939393 Z M79.2188399,0.0281012777 L69.2970208,13.0349784 L59.37581,0.0281012777 L52.4818732,0.0281012777 L69.2970208,22.0730062 L86.1127767,0.0281012777 L79.2188399,0.0281012777 Z M26.2424572,22.0730062 L33.1370023,22.0730062 L43.0588214,9.06612908 L52.9788157,22.0730062 L59.8727525,22.0730062 L43.0588214,0.0281012777 L26.2424572,22.0730062 Z M37.5559586,24.4415424 L43.0588214,31.6554202 L48.5604676,24.4415424 L43.0588214,17.2270564 L37.5559586,24.4415424 Z" id="Fill-1" fill="#FF6A46" mask="url(#mask-2)"></path>
            </g>
        </g>
    </g>
</svg>