<?xml version="1.0" encoding="UTF-8"?>
<svg width="101px" height="34px" viewBox="0 0 101 34" version="1.1" xmlns="http://www.w3.org/2000/svg" xmlns:xlink="http://www.w3.org/1999/xlink">
    <!-- Generator: Sketch 49.1 (51147) - http://www.bohemiancoding.com/sketch -->
    <title>Missions Logo</title>
    <desc>Created with Sketch.</desc>
    <defs>
        <polygon id="path-1" points="0 0.00012342514 34.9475816 0.00012342514 34.9475816 12.8468785 0 12.8468785"></polygon>
    </defs>
    <g id="Page-1" stroke="none" stroke-width="1" fill="none" fill-rule="evenodd">
        <g id="Design-main-map-screen---Logged-out" transform="translate(-137.000000, -30.000000)">
            <g id="Missions-Logo" transform="translate(137.000000, 30.000000)">
                <g id="Missions-logo" fill="#FF6A46">
                    <polygon id="Fill-1" points="16.2812 0.230721875 16.2812 3.23186473 17.8514133 3.23186473 17.8514133 10.6761058 16.1474311 10.6761058 16.1474311 13.6970879 22.9458533 13.6970879 22.9458533 10.6761058 21.2414222 10.6761058 21.2414222 3.23186473 22.8116356 3.23186473 22.8116356 0.230721875"></polygon>
                    <path d="M32.5227631,9.73382991 C32.5227631,8.79146384 31.4117631,8.5790933 30.0713809,8.50289241 C27.1603364,8.29142366 25.2453764,7.29089241 25.2072209,4.36730313 C25.0923053,-1.44245134 35.5105676,-1.44245134 35.4338076,4.36730313 L32.1780164,4.36730313 C32.1780164,2.57770938 28.5774787,2.73191473 28.463012,4.32852634 C28.386252,5.34799509 29.3818876,5.55946384 30.5885009,5.6942808 C33.250412,5.98240134 35.8548653,6.38640134 35.8548653,9.7532183 C35.8548653,15.4087674 24.9387853,15.5048076 25.0155453,9.57962455 L28.3287942,9.57962455 C28.3287942,11.2916647 32.5227631,11.3110531 32.5227631,9.73382991" id="Fill-2"></path>
                    <path d="M45.7009738,9.73382991 C45.7009738,8.79146384 44.5899738,8.5790933 43.2495916,8.50289241 C40.3385471,8.29142366 38.4235871,7.29089241 38.3854316,4.36730313 C38.270516,-1.44245134 48.6887782,-1.44245134 48.6120182,4.36730313 L45.3562271,4.36730313 C45.3562271,2.57770938 41.7556893,2.73191473 41.6412227,4.32852634 C41.5644627,5.34799509 42.5600982,5.55946384 43.7667116,5.6942808 C46.4286227,5.98240134 49.033076,6.38640134 49.033076,9.7532183 C49.033076,15.4087674 38.116996,15.5048076 38.193756,9.57962455 L41.5070049,9.57962455 C41.5070049,11.2916647 45.7009738,11.3110531 45.7009738,9.73382991" id="Fill-4"></path>
                    <polygon id="Fill-6" points="57.9982849 10.6761058 57.9982849 13.6966371 51.1994138 13.6966371 51.1994138 10.6761058 52.9038449 10.6761058 52.9038449 3.23186473 51.3336316 3.23186473 51.3336316 0.230721875 57.8640671 0.230721875 57.8640671 3.23186473 56.2938538 3.23186473 56.2938538 10.6761058"></polygon>
                    <path d="M70.04552,6.98266205 C70.04552,2.13556384 63.3234089,2.13556384 63.3234089,6.98266205 C63.3234089,11.8694388 70.04552,11.8694388 70.04552,6.98266205 M59.7996311,6.98266205 C59.7996311,-2.32737366 73.5504444,-2.32737366 73.5504444,6.98266205 C73.5504444,16.3129879 59.7996311,16.3129879 59.7996311,6.98266205" id="Fill-8"></path>
                    <path d="M97.2644364,9.73382991 C97.2644364,8.79146384 96.1534364,8.5790933 94.8130542,8.50289241 C91.9020098,8.29142366 89.9870498,7.29089241 89.9488942,4.36730313 C89.8339787,-1.44245134 100.252241,-1.44245134 100.175481,4.36730313 L96.9196898,4.36730313 C96.9196898,2.57770938 93.319152,2.73191473 93.2046853,4.32852634 C93.1279253,5.34799509 94.1235609,5.55946384 95.3301742,5.6942808 C97.9920853,5.98240134 100.596539,6.38640134 100.596539,9.7532183 C100.596539,15.4087674 89.6804587,15.5048076 89.7572187,9.57962455 L93.0704676,9.57962455 C93.0704676,11.2916647 97.2644364,11.3110531 97.2644364,9.73382991" id="Fill-10"></path>
                    <polygon id="Fill-12" points="9.57569778 9.84565134 9.57569778 13.6967272 13.0801733 13.6967272 13.0801733 6.16636563"></polygon>
                    <polygon id="Fill-14" points="6.72062978 10.6871076 13.0800387 4.00983527 13.0800387 0.192125446 11.854572 0.192125446 6.51144756 6.0402058 1.26393644 0.192125446 -0.000134666667 0.192125446 -0.000134666667 13.6968174 3.50478978 13.6968174 3.50478978 7.69498259 6.33907422 10.6956746 6.72197644 10.6956746 6.72556756 10.6920674"></polygon>
                    <polygon id="Fill-17" points="83.7795898 0.230721875 83.7795898 6.82953884 77.0000209 0.173458482 75.755252 0.173458482 75.755252 3.61332009 79.298332 7.0847442 79.298332 7.07933348 86.0585987 13.7160254 87.2840653 13.7160254 87.2840653 0.230721875"></polygon>
                    <polygon id="Fill-19" points="75.7550276 5.6951375 75.7550276 13.6966821 79.2981076 13.6966821 79.2981076 9.16656161"></polygon>
                </g>
                <g id="Group-7" transform="translate(0.000000, 18.000000)">
                    <g id="Page-1" transform="translate(66.000000, 3.000000)">
                        <mask id="mask-2" fill="white">
                            <use xlink:href="#path-1"></use>
                        </mask>
                        <g id="Clip-2"></g>
                        <path d="M0,2.10197951 L5.95550987,2.11333462 C7.26505061,2.11333462 8.32650681,3.17503768 8.32650681,4.48482527 C8.32650681,5.79436601 7.26505061,6.85631591 5.95550987,6.85631591 L0,6.84471395 L0,8.94664409 L5.95550987,8.9579992 C8.42598748,8.9579992 10.4286838,6.95530288 10.4286838,4.48482527 C10.4286838,2.01434766 8.42598748,0.011404483 5.95550987,0.011404483 L0,4.93700561e-05 L0,2.10197951 Z M32.1497805,0.011404483 L28.1231588,5.29005088 L24.0967838,0.011404483 L21.2989828,0.011404483 L28.1231588,8.9579992 L34.9475816,0.011404483 L32.1497805,0.011404483 Z M10.6501085,8.9579992 L13.4481564,8.9579992 L17.4747782,3.6793528 L21.5006594,8.9579992 L24.2984605,8.9579992 L17.4747782,0.011404483 L10.6501085,8.9579992 Z M15.2415237,9.9192342 L17.4747782,12.8468785 L19.707539,9.9192342 L17.4747782,6.99134302 L15.2415237,9.9192342 Z" id="Fill-1" fill="#FF6A46" mask="url(#mask-2)"></path>
                    </g>
                    <text id="powered-by" font-family="Roboto-Light, Roboto" font-size="12" font-weight="300" fill="#363840">
                        <tspan x="0.604492188" y="11">powered by</tspan>
                    </text>
                </g>
            </g>
        </g>
    </g>
</svg>