<?xml version="1.0" encoding="utf-8"?>
<!-- Generator: Adobe Illustrator 16.0.0, SVG Export Plug-In . SVG Version: 6.00 Build 0)  -->
<!DOCTYPE svg PUBLIC "-//W3C//DTD SVG 1.1//EN" "http://www.w3.org/Graphics/SVG/1.1/DTD/svg11.dtd">
<svg version="1.1" id="Слой_1" xmlns="http://www.w3.org/2000/svg" xmlns:xlink="http://www.w3.org/1999/xlink" x="0px" y="0px"
	 width="345px" height="114.5px" viewBox="0 0 345 114.5" enable-background="new 0 0 345 114.5" xml:space="preserve">
<g>
	<g>
		<path fill-rule="evenodd" clip-rule="evenodd" fill="#FF6A46" d="M271.253,100.809l7.283,9.551l7.281-9.551l-7.281-9.551
			L271.253,100.809z M256.273,97.674h9.127l13.136-17.219l13.131,17.219h9.13l-22.261-29.185L256.273,97.674z M326.412,68.489
			l-13.139,17.22l-13.135-17.22h-9.128l22.263,29.185l22.263-29.185H326.412z M221.528,75.307l19.427,0.038
			c4.275,0,7.736,3.463,7.736,7.735s-3.461,7.738-7.736,7.738l-19.427-0.038v6.856l19.427,0.038c8.061,0,14.595-6.534,14.595-14.594
			c0-8.057-6.534-14.591-14.595-14.591l-19.427-0.039V75.307z"/>
	</g>
	<g>
		<path fill="#363840" d="M27.456,84.78c0,3.097-0.701,5.565-2.103,7.407c-1.402,1.842-3.333,2.762-5.792,2.762
			c-1.44,0-2.705-0.274-3.794-0.822s-1.979-1.325-2.667-2.332V102.5h-2.294V73.865h1.759l0.42,3.23
			c0.688-1.147,1.58-2.036,2.676-2.667c1.096-0.631,2.383-0.946,3.861-0.946c2.485,0,4.428,0.991,5.83,2.973
			c1.401,1.981,2.103,4.623,2.103,7.923V84.78z M25.162,84.379c0-2.625-0.522-4.766-1.567-6.423
			c-1.045-1.656-2.574-2.485-4.587-2.485c-1.517,0-2.756,0.363-3.718,1.089c-0.962,0.727-1.691,1.67-2.188,2.829v10.016
			c0.535,1.122,1.293,2.004,2.275,2.647c0.981,0.644,2.204,0.965,3.67,0.965c2,0,3.52-0.751,4.559-2.255
			c1.038-1.503,1.558-3.498,1.558-5.983V84.379z"/>
		<path fill="#363840" d="M31.316,83.901c0-3.045,0.834-5.543,2.504-7.493c1.669-1.95,3.88-2.925,6.633-2.925
			c2.765,0,4.982,0.975,6.652,2.925s2.504,4.448,2.504,7.493v0.631c0,3.058-0.832,5.56-2.495,7.502
			c-1.663,1.943-3.871,2.915-6.624,2.915c-2.778,0-5.002-0.972-6.671-2.915c-1.67-1.943-2.504-4.444-2.504-7.502V83.901z
			 M33.61,84.532c0,2.396,0.605,4.409,1.816,6.04c1.21,1.631,2.899,2.447,5.065,2.447c2.128,0,3.801-0.815,5.018-2.447
			c1.217-1.631,1.826-3.644,1.826-6.04v-0.631c0-2.357-0.612-4.358-1.835-6.002c-1.224-1.644-2.906-2.466-5.046-2.466
			c-2.141,0-3.817,0.822-5.027,2.466c-1.211,1.644-1.816,3.645-1.816,6.002V84.532z"/>
		<path fill="#363840" d="M58.842,87.838l0.803,3.785h0.115l0.956-3.785l4.396-13.973h1.969l4.396,13.973l0.956,3.899h0.114
			l0.898-3.899l3.689-13.973h2.447l-6.021,20.683h-1.95l-4.683-14.145l-0.822-3.345h-0.115l-0.822,3.345l-4.587,14.145h-1.969
			l-6.002-20.683h2.446L58.842,87.838z"/>
		<path fill="#363840" d="M91.873,94.949c-2.676,0-4.849-0.946-6.518-2.838c-1.67-1.893-2.504-4.323-2.504-7.292v-1.051
			c0-2.982,0.844-5.441,2.533-7.378s3.782-2.906,6.279-2.906c2.51,0,4.451,0.806,5.821,2.418c1.37,1.612,2.055,3.782,2.055,6.508
			v1.778H85.145v0.631c0,2.358,0.596,4.313,1.787,5.868c1.191,1.555,2.839,2.332,4.941,2.332c1.262,0,2.421-0.207,3.479-0.621
			c1.058-0.414,1.937-0.972,2.638-1.672l0.975,1.567c-0.727,0.764-1.679,1.398-2.858,1.902
			C94.928,94.697,93.517,94.949,91.873,94.949z M91.663,75.433c-1.758,0-3.205,0.63-4.339,1.892
			c-1.134,1.262-1.797,2.861-1.988,4.798l0.058,0.115h11.851V81.76c0-1.835-0.481-3.348-1.443-4.54
			C94.839,76.029,93.459,75.433,91.663,75.433z"/>
		<path fill="#363840" d="M113.606,75.834l-1.625-0.115c-1.44,0-2.622,0.405-3.546,1.214c-0.924,0.809-1.583,1.921-1.979,3.335
			v14.279h-2.294V73.865h2.007l0.287,3.441v0.229c0.599-1.274,1.402-2.268,2.409-2.982c1.006-0.714,2.204-1.071,3.593-1.071
			c0.28,0,0.548,0.022,0.803,0.067c0.254,0.045,0.465,0.093,0.63,0.144L113.606,75.834z"/>
		<path fill="#363840" d="M125.381,94.949c-2.676,0-4.849-0.946-6.518-2.838c-1.67-1.893-2.504-4.323-2.504-7.292v-1.051
			c0-2.982,0.844-5.441,2.533-7.378s3.782-2.906,6.279-2.906c2.51,0,4.451,0.806,5.821,2.418c1.37,1.612,2.055,3.782,2.055,6.508
			v1.778h-14.394v0.631c0,2.358,0.596,4.313,1.787,5.868c1.191,1.555,2.839,2.332,4.941,2.332c1.262,0,2.421-0.207,3.479-0.621
			c1.058-0.414,1.937-0.972,2.638-1.672l0.975,1.567c-0.727,0.764-1.679,1.398-2.858,1.902
			C128.437,94.697,127.025,94.949,125.381,94.949z M125.171,75.433c-1.758,0-3.205,0.63-4.339,1.892
			c-1.134,1.262-1.797,2.861-1.988,4.798l0.058,0.115h11.851V81.76c0-1.835-0.481-3.348-1.443-4.54
			C128.347,76.029,126.968,75.433,125.171,75.433z"/>
		<path fill="#363840" d="M136.774,84.379c0-3.301,0.698-5.942,2.093-7.923s3.342-2.973,5.84-2.973c1.414,0,2.653,0.3,3.718,0.898
			c1.064,0.599,1.946,1.447,2.647,2.542V64.729h2.293v29.819h-1.873l-0.325-3.001c-0.701,1.096-1.593,1.937-2.676,2.523
			c-1.083,0.586-2.358,0.879-3.823,0.879c-2.472,0-4.406-0.92-5.801-2.762c-1.396-1.841-2.093-4.31-2.093-7.407V84.379z
			 M139.068,84.78c0,2.498,0.5,4.485,1.5,5.964c1,1.478,2.507,2.217,4.521,2.217c1.478,0,2.708-0.328,3.689-0.984
			c0.981-0.656,1.746-1.564,2.294-2.724v-9.806c-0.523-1.172-1.262-2.128-2.217-2.867c-0.956-0.739-2.198-1.108-3.728-1.108
			c-2.014,0-3.527,0.825-4.54,2.475c-1.013,1.651-1.52,3.794-1.52,6.433V84.78z"/>
		<path fill="#363840" d="M185.651,84.78c0,3.097-0.701,5.565-2.103,7.407c-1.402,1.842-3.333,2.762-5.792,2.762
			c-1.504,0-2.807-0.303-3.909-0.908c-1.102-0.605-1.998-1.469-2.686-2.59l-0.382,3.097h-1.797V64.729h2.294v12.31
			c0.688-1.134,1.567-2.01,2.638-2.628c1.071-0.618,2.338-0.927,3.804-0.927c2.485,0,4.428,0.991,5.83,2.973
			c1.401,1.981,2.103,4.623,2.103,7.923V84.78z M183.338,84.379c0-2.638-0.51-4.782-1.529-6.433c-1.02-1.65-2.53-2.475-4.53-2.475
			c-1.58,0-2.854,0.385-3.823,1.156c-0.969,0.771-1.695,1.768-2.179,2.992v9.462c0.51,1.198,1.265,2.144,2.265,2.838
			c1,0.695,2.259,1.042,3.775,1.042c2,0,3.504-0.739,4.511-2.217c1.007-1.479,1.51-3.466,1.51-5.964V84.379z"/>
		<path fill="#363840" d="M196.643,88.947l0.727,2.466h0.114l6.251-17.548h2.562l-8.984,23.99c-0.535,1.401-1.229,2.593-2.083,3.574
			c-0.854,0.981-2.104,1.472-3.747,1.472c-0.268,0-0.593-0.028-0.975-0.086c-0.382-0.057-0.663-0.118-0.841-0.182l0.268-1.911
			c0.153,0.025,0.398,0.054,0.736,0.086c0.337,0.032,0.583,0.048,0.736,0.048c0.994,0,1.791-0.354,2.39-1.061
			c0.598-0.707,1.108-1.615,1.529-2.724l1.09-2.791l-7.99-20.415h2.542L196.643,88.947z"/>
	</g>
	<path fill="#FF6A46" d="M63.863,32.692c0-31.516,46.754-31.516,46.754,0C110.618,64.275,63.863,64.275,63.863,32.692z
		 M98.702,32.692c0-16.409-22.856-16.409-22.856,0C75.845,49.233,98.702,49.233,98.702,32.692z"/>
	<path fill="#FF6A46" d="M116.606,32.692c0-31.516,46.754-31.516,46.754,0C163.36,64.275,116.606,64.275,116.606,32.692z
		 M151.444,32.692c0-16.409-22.856-16.409-22.856,0C128.587,49.233,151.444,49.233,151.444,32.692z"/>
	<path fill="#FF6A46" d="M186.203,35.688h0.326l10.418-25.851h11.2v1.758l-19.34,44.345h-4.948l-19.535-44.345V9.837h11.2
		L186.203,35.688z"/>
	<path fill="#FF6A46" d="M235.258,45.195c0,3.842,0,6.251,0,10.223c-7.749,0-15.368,0-23.117,0c0-3.972,0-6.381,0-10.223h5.796
		V19.995h-5.34c0-3.906,0-6.316,0-10.158c7.424,0,14.781,0,22.205,0c0,3.842,0,6.251,0,10.158h-5.34v25.201H235.258z"/>
	<path fill="#FF6A46" d="M314.241,9.25c9.182,0.065,18.754,4.819,20.968,16.149h-11.461c-1.888-3.908-4.884-5.47-9.507-5.47
		c-7.358,0-11.33,5.73-11.33,12.698c0,7.554,4.428,12.502,11.33,12.502c4.688,0,7.685-1.237,9.768-5.601h-9.702V29.437h21.554
		c0.26,4.558,0.26,8.921-1.303,13.349c-3.255,9.508-11.916,13.154-20.316,13.154c-11.591,0-23.312-7.749-23.377-23.312
		C290.929,17.065,302.65,9.25,314.241,9.25z"/>
	<g>
		<path fill="#FF6A46" d="M55,22.512V9.5h-4.091L32.741,29.296L14.899,9.5H10v46c5,0,9,0,12,0V35.103L32.155,45.5h1.303l8.675-9.243
			L55,22.512z"/>
		<path fill="#FF6A46" d="M44,42.578V55.5c3,0,7,0,11,0V29.996L44,42.578z"/>
	</g>
	<g>
		<path fill="#FF6A46" d="M270,9.5v22.672L247.107,9.5H243v11.758l19.94,19.5l-0.05,0.026L277.908,55.5H282v-46
			C278,9.5,274,9.5,270,9.5z"/>
		<path fill="#FF6A46" d="M243,28.445V55.5c4,0,8,0,12,0V40.188L243,28.445z"/>
	</g>
</g>
</svg>
