<?xml version="1.0" encoding="UTF-8"?>
<svg width="326px" height="48px" viewBox="0 0 326 48" version="1.1" xmlns="http://www.w3.org/2000/svg" xmlns:xlink="http://www.w3.org/1999/xlink">
    <!-- Generator: Sketch 50.2 (55047) - http://www.bohemiancoding.com/sketch -->
    <title>logo_Mooving</title>
    <desc>Created with Sketch.</desc>
    <defs></defs>
    <g id="Page-1" stroke="none" stroke-width="1" fill="none" fill-rule="evenodd">
        <g id="logo_Mooving" fill="#FF6A46" fill-rule="nonzero">
            <path d="M53.863,23.692 C53.863,-7.824 100.617,-7.824 100.617,23.692 C100.618,55.275 53.863,55.275 53.863,23.692 Z M88.702,23.692 C88.702,7.283 65.846,7.283 65.846,23.692 C65.845,40.233 88.702,40.233 88.702,23.692 Z" id="Shape"></path>
            <path d="M106.606,23.692 C106.606,-7.824 153.36,-7.824 153.36,23.692 C153.36,55.275 106.606,55.275 106.606,23.692 Z M141.444,23.692 C141.444,7.283 118.588,7.283 118.588,23.692 C118.587,40.233 141.444,40.233 141.444,23.692 Z" id="Shape"></path>
            <polygon id="Shape" points="176.203 26.688 176.529 26.688 186.947 0.837 198.147 0.837 198.147 2.595 178.807 46.94 173.859 46.94 154.324 2.595 154.324 0.837 165.524 0.837"></polygon>
            <path d="M225.258,36.195 C225.258,40.037 225.258,42.446 225.258,46.418 C217.509,46.418 209.89,46.418 202.141,46.418 C202.141,42.446 202.141,40.037 202.141,36.195 L207.937,36.195 L207.937,10.995 L202.597,10.995 C202.597,7.089 202.597,4.679 202.597,0.837 C210.021,0.837 217.378,0.837 224.802,0.837 C224.802,4.679 224.802,7.088 224.802,10.995 L219.462,10.995 L219.462,36.196 L225.258,36.196 L225.258,36.195 Z" id="Shape"></path>
            <path d="M304.241,0.25 C313.423,0.315 322.995,5.069 325.209,16.399 L313.748,16.399 C311.86,12.491 308.864,10.929 304.241,10.929 C296.883,10.929 292.911,16.659 292.911,23.627 C292.911,31.181 297.339,36.129 304.241,36.129 C308.929,36.129 311.926,34.892 314.009,30.528 L304.307,30.528 L304.307,20.437 L325.861,20.437 C326.121,24.995 326.121,29.358 324.558,33.786 C321.303,43.294 312.642,46.94 304.242,46.94 C292.651,46.94 280.93,39.191 280.865,23.628 C280.929,8.065 292.65,0.25 304.241,0.25 Z" id="Shape"></path>
            <g id="Group">
                <path d="M45,13.512 L45,0.5 L40.909,0.5 L22.741,20.296 L4.899,0.5 L0,0.5 L0,46.5 C5,46.5 9,46.5 12,46.5 L12,26.103 L22.155,36.5 L23.458,36.5 L32.133,27.257 L45,13.512 Z" id="Shape"></path>
                <path d="M34,33.578 L34,46.5 C37,46.5 41,46.5 45,46.5 L45,20.996 L34,33.578 Z" id="Shape"></path>
            </g>
            <g id="Group" transform="translate(233.000000, 0.000000)">
                <path d="M27,0.5 L27,23.172 L4.107,0.5 L0,0.5 L0,12.258 L19.94,31.758 L19.89,31.784 L34.908,46.5 L39,46.5 L39,0.5 C35,0.5 31,0.5 27,0.5 Z" id="Shape"></path>
                <path d="M0,19.445 L0,46.5 C4,46.5 8,46.5 12,46.5 L12,31.188 L0,19.445 Z" id="Shape"></path>
            </g>
        </g>
    </g>
</svg>