<?xml version="1.0" encoding="utf-8"?>
<!-- Generator: Adobe Illustrator 16.0.0, SVG Export Plug-In . SVG Version: 6.00 Build 0)  -->
<!DOCTYPE svg PUBLIC "-//W3C//DTD SVG 1.1//EN" "http://www.w3.org/Graphics/SVG/1.1/DTD/svg11.dtd">
<svg version="1.1" id="Слой_1" xmlns="http://www.w3.org/2000/svg" xmlns:xlink="http://www.w3.org/1999/xlink" x="0px" y="0px"
	 width="22px" height="66.906px" viewBox="0 0 22 66.906" enable-background="new 0 0 22 66.906" xml:space="preserve">
<title>Group 7</title>
<desc>Created with Sketch.</desc>
<g id="location">
	<path id="Fill-55" fill="#FFB09E" d="M11,30l-0.601-0.68C9.975,28.84,0,17.475,0,10.668C0,4.786,4.934,0,11,0
		c6.066,0,11,4.786,11,10.668c0,6.807-9.975,18.171-10.399,18.652L11,30L11,30z"/>
	<ellipse id="Oval" fill="#FFFFFF" cx="11.06" cy="10.735" rx="8.632" ry="8.372"/>
</g>
<g id="Group-6" transform="translate(11.000000, 10.500000) rotate(-180.000000) translate(-11.000000, -10.500000) translate(6.000000, 5.000000)">
	<polyline id="Fill-74" fill="#FFB09E" points="8.229,5.328 4.667,2.04 1.105,5.328 0.229,4.519 4.667,0.421 9.105,4.519 
		8.229,5.328 	"/>
	<polygon id="Fill-75" fill="#FFB09E" points="4,1.231 5.333,1.231 5.333,11 4,11 	"/>
</g>
<circle id="point_red" fill="#45474E" cx="11" cy="33.5" r="3.5"/>
</svg>
