<?xml version="1.0" encoding="utf-8"?>
<!-- Generator: Adobe Illustrator 16.0.0, SVG Export Plug-In . SVG Version: 6.00 Build 0)  -->
<!DOCTYPE svg PUBLIC "-//W3C//DTD SVG 1.1//EN" "http://www.w3.org/Graphics/SVG/1.1/DTD/svg11.dtd">
<svg version="1.1" id="Слой_1" xmlns="http://www.w3.org/2000/svg" xmlns:xlink="http://www.w3.org/1999/xlink" x="0px" y="0px"
	 width="22px" height="67.813px" viewBox="0 0 22 67.813" enable-background="new 0 0 22 67.813" xml:space="preserve">
<title>Group 4</title>
<desc>Created with Sketch.</desc>
<g id="location">
	<path id="Fill-55" fill="#FFB09E" d="M11,30l-0.601-0.68C9.975,28.84,0,17.475,0,10.668C0,4.786,4.934,0,11,0
		c6.066,0,11,4.786,11,10.668c0,6.807-9.975,18.171-10.399,18.652L11,30L11,30z"/>
	<ellipse id="Oval" fill="#FFFFFF" cx="11.06" cy="10.735" rx="8.632" ry="8.372"/>
</g>
<g id="Group-6" transform="translate(7.000000, 5.000000)">
	<polyline id="Fill-74" fill="#FFB09E" points="7.406,5.328 4.2,2.04 0.994,5.328 0.206,4.519 4.2,0.421 8.195,4.519 7.406,5.328 	
		"/>
	<polygon id="Fill-75" fill="#FFB09E" points="3.6,1.231 4.801,1.231 4.801,11 3.6,11 	"/>
</g>
<circle id="point_blue" fill="#45474E" cx="11" cy="34" r="4"/>
</svg>
