<?xml version="1.0" encoding="UTF-8"?>
<svg width="28px" height="30px" viewBox="0 0 28 30" version="1.1" xmlns="http://www.w3.org/2000/svg" xmlns:xlink="http://www.w3.org/1999/xlink">
    <!-- Generator: Sketch 47 (45396) - http://www.bohemiancoding.com/sketch -->
    <title>pizza</title>
    <desc>Created with Sketch.</desc>
    <defs></defs>
    <g id="Page-1" stroke="none" stroke-width="1" fill="none" fill-rule="evenodd">
        <g id="Order-Pick-Up-screen" transform="translate(-215.000000, -286.000000)">
            <g id="pizza" transform="translate(216.000000, 286.000000)">
                <path d="M12.7689514,5.02058487 C12.5338605,5.00692499 12.296962,5 12.0584462,5 C5.39875025,5 0,10.3987503 0,17.0584462 C0,23.7181421 5.39875025,29.1168924 12.0584462,29.1168924 C18.7181421,29.1168924 24.1168924,23.7181421 24.1168924,17.0584462 C24.1168924,15.3826185 23.7750364,13.7866355 23.1572563,12.3364291 L20.5691414,13.5052111 C21.0578099,14.6260529 21.3288382,15.863585 21.3288382,17.1644191 C21.3288382,22.225788 17.225788,26.3288382 12.1644191,26.3288382 C7.10305019,26.3288382 3,22.225788 3,17.1644191 C3,12.1030502 7.10305019,8 12.1644191,8 C12.3046794,8 12.4442038,8.00315094 12.5829254,8.00938591 L12.7689514,5.02058487 Z" id="Combined-Shape" stroke="#969CFB"></path>
                <polyline id="Path-5" stroke="#969CFB" points="12.8919271 4.76920573 12.1477865 16.6328125 23.5068359 12.1969401"></polyline>
                <polyline id="Path-5" stroke="#969CFB" points="15.8919271 0.769205729 15.1477865 12.6328125 26.6115723 8.33959961"></polyline>
                <path d="M15.844813,1.08367447 C20.4524682,1.3514008 24.3553081,4.24531788 26.0786281,8.29072105 L23.5290025,9.44212149 C22.1892432,6.36916245 19.1888613,4.18656551 15.6615535,4.02802752 L15.844813,1.08367447 Z" id="Combined-Shape" stroke="#777FF9"></path>
                <circle id="Oval-9" stroke="#7B83FA" cx="8.5" cy="13.5" r="1.5"></circle>
                <circle id="Oval-9" stroke="#7B83FA" cx="18" cy="8" r="1"></circle>
                <circle id="Oval-9" stroke="#7B83FA" cx="11.5" cy="22.5" r="1.5"></circle>
                <circle id="Oval-9" stroke="#7B83FA" cx="17.5" cy="18.5" r="1.5"></circle>
                <circle id="Oval-9" stroke="#7B83FA" cx="6.5" cy="18.5" r="1"></circle>
                <circle id="Oval-9" stroke="#7B83FA" cx="16.5" cy="22.5" r="1"></circle>
            </g>
        </g>
    </g>
</svg>