<?xml version="1.0" standalone="no"?>
<!DOCTYPE svg PUBLIC "-//W3C//DTD SVG 20010904//EN"
 "http://www.w3.org/TR/2001/REC-SVG-20010904/DTD/svg10.dtd">
<svg version="1.0" xmlns="http://www.w3.org/2000/svg"
 width="700.000000pt" height="700.000000pt" viewBox="0 0 700.000000 700.000000"
 preserveAspectRatio="xMidYMid meet">
<metadata>
Created by potrace 1.11, written by Peter Selinger 2001-2013
</metadata>
<g transform="translate(0.000000,700.000000) scale(0.100000,-0.100000)"
fill="#000000" stroke="none">
<path d="M0 3500 l0 -3500 938 2 937 3 0 1548 c0 851 3 1547 6 1547 5 0 339
-339 629 -640 68 -70 643 -659 810 -829 l75 -77 100 1 c55 0 103 3 106 7 3 5
194 200 425 435 230 234 492 501 582 592 90 91 349 354 575 584 227 230 474
482 551 560 112 115 611 622 1179 1199 l87 88 0 990 0 990 -328 0 -328 0 -116
-122 c-63 -68 -130 -139 -148 -158 -18 -19 -94 -100 -169 -179 -75 -79 -147
-156 -161 -171 -14 -15 -91 -96 -171 -181 -81 -85 -161 -170 -179 -189 -18
-19 -88 -93 -155 -165 -68 -71 -142 -150 -165 -175 -23 -25 -100 -106 -170
-180 -70 -74 -142 -151 -160 -170 -18 -19 -96 -102 -174 -185 -77 -82 -175
-185 -217 -230 -42 -44 -97 -102 -123 -130 -108 -113 -276 -293 -311 -330 -38
-41 -300 -317 -391 -413 l-50 -53 -95 102 c-52 56 -107 116 -123 133 -15 17
-73 79 -127 137 -55 58 -108 117 -120 130 -11 13 -44 49 -72 79 -29 30 -110
118 -182 195 -71 77 -150 163 -176 190 -26 28 -60 64 -75 80 -14 17 -74 81
-132 143 -58 62 -112 121 -121 131 -16 18 -174 189 -287 310 -71 76 -89 95
-206 222 -47 52 -104 113 -125 135 -21 22 -83 90 -138 149 -55 60 -113 123
-130 140 -16 18 -73 79 -125 136 -52 56 -106 115 -120 129 -14 14 -70 75 -125
135 -55 59 -111 120 -125 135 -14 15 -65 70 -114 123 l-89 97 -338 0 -339 0 0
-3500z"/>
<path d="M6800 3933 c0 -5 -26 -35 -58 -69 -50 -53 -213 -229 -296 -318 -15
-17 -56 -60 -90 -96 -33 -36 -113 -121 -176 -189 -148 -160 -156 -169 -275
-297 -55 -59 -130 -140 -166 -179 -37 -38 -81 -86 -99 -105 -18 -19 -82 -89
-144 -154 -61 -65 -119 -128 -128 -138 -13 -15 -180 -195 -268 -288 -8 -9 -28
-31 -45 -50 l-30 -35 0 -1005 0 -1005 898 -3 897 -2 0 1970 c0 1307 -3 1970
-10 1970 -5 0 -10 -3 -10 -7z"/>
</g>
</svg>
