<?xml version="1.0" encoding="UTF-8"?>
<svg width="27px" height="19px" viewBox="0 0 27 19" version="1.1" xmlns="http://www.w3.org/2000/svg" xmlns:xlink="http://www.w3.org/1999/xlink">
    <!-- Generator: Sketch 43.1 (39012) - http://www.bohemiancoding.com/sketch -->
    <title>sort-icon</title>
    <desc>Created with Sketch.</desc>
    <defs></defs>
    <g id="Page-1" stroke="none" stroke-width="1" fill="none" fill-rule="evenodd">
        <g id="Bid-selection-screen" transform="translate(-328.000000, -33.000000)" fill="#664BF1">
            <g id="sort-icon" transform="translate(327.000000, 33.000000)">
                <g id="arrow-left" transform="translate(6.000000, 10.000000) rotate(270.000000) translate(-6.000000, -10.000000) translate(-3.500000, 4.500000)">
                    <path d="M0.685,6 L5.41833598,0.695214996 L6.80982457,1.8735759 L3.315,6 L6.80982457,9.69659338 L5.41833598,10.9051878 C0.589835985,6.07618781 0.685,6 0.685,6 Z" id="Fill-26"></path>
                    <polygon id="Fill-27" points="2 5 19 5 19 7 2 7"></polygon>
                </g>
                <g id="filtr" transform="translate(13.000000, 1.000000)">
                    <g id="navicon">
                        <polygon id="Fill-19" points="0 0 15 0 15 2 0 2"></polygon>
                    </g>
                    <g id="navicon" transform="translate(0.000000, 5.000000)">
                        <polygon id="Fill-19" points="0 0 12 0 12 2 0 2"></polygon>
                        <polygon id="Fill-19" points="0 5 8 5 8 7 0 7"></polygon>
                    </g>
                </g>
            </g>
        </g>
    </g>
</svg>