<?xml version="1.0" encoding="UTF-8"?>
<svg width="34px" height="34px" viewBox="0 0 34 34" version="1.1" xmlns="http://www.w3.org/2000/svg" xmlns:xlink="http://www.w3.org/1999/xlink">
    <!-- Generator: Sketch 46.2 (44496) - http://www.bohemiancoding.com/sketch -->
    <title>user</title>
    <desc>Created with Sketch.</desc>
    <defs></defs>
    <g id="Page-1" stroke="none" stroke-width="1" fill="none" fill-rule="evenodd">
        <g id="Design-main-map-screen" transform="translate(-332.000000, -26.000000)" fill="#664BF1">
            <g id="user" transform="translate(332.000000, 26.000000)">
                <path d="M17.062,33.93 C7.728,33.93 0.133,26.335 0.133,17 C0.133,7.665 7.728,0.07 17.062,0.07 C26.397,0.07 33.992,7.665 33.992,17 C33.992,26.335 26.397,33.93 17.062,33.93 L17.062,33.93 Z M17.062,1.93 C8.753,1.93 1.992,8.69 1.992,17 C1.992,25.31 8.753,32.07 17.062,32.07 C25.372,32.07 32.133,25.31 32.133,17 C32.133,8.69 25.372,1.93 17.062,1.93 L17.062,1.93 Z" id="Fill-57"></path>
                <path d="M7.19,29.248 L5.487,28.499 C6.004,27.328 7.531,26.643 9.301,25.849 C11.008,25.083 13.133,24.13 13.133,23 L13.133,21.462 C12.528,20.955 11.503,19.865 11.342,18.226 C10.852,17.764 10.039,16.822 10.039,15.656 C10.039,14.948 10.319,14.377 10.565,14.014 C10.415,13.255 10.133,11.666 10.133,10.5 C10.133,6.594 12.853,4.07 17.062,4.07 C18.27,4.07 19.737,4.394 20.554,5.269 C22.462,5.605 23.992,7.864 23.992,10.5 C23.992,12.191 23.695,13.582 23.516,14.27 C23.715,14.607 23.93,15.107 23.93,15.687 C23.93,16.998 23.268,17.846 22.65,18.299 C22.475,19.915 21.554,20.957 20.992,21.451 L20.992,23 C20.992,23.961 22.734,24.607 24.419,25.232 C26.335,25.942 28.317,26.677 28.932,28.284 L27.193,28.948 C26.881,28.128 25.229,27.516 23.772,26.976 C21.598,26.169 19.133,25.255 19.133,23 L19.133,20.486 L19.567,20.213 C19.611,20.184 20.82,19.372 20.82,17.75 L20.82,17.121 L21.404,16.887 C21.502,16.842 22.07,16.543 22.07,15.687 C22.07,15.425 21.87,15.132 21.8,15.05 L21.461,14.652 L21.617,14.145 C21.622,14.129 22.133,12.557 22.133,10.5 C22.133,8.745 21.127,7.086 20.062,7.086 L19.528,7.086 L19.259,6.625 C19.062,6.288 18.226,5.93 17.062,5.93 C13.888,5.93 11.992,7.638 11.992,10.5 C11.992,11.852 12.466,14.029 12.471,14.051 L12.581,14.555 L12.213,14.915 C12.213,14.915 11.898,15.248 11.898,15.656 C11.898,16.171 12.516,16.812 12.815,17.042 L13.177,17.321 L13.18,17.781 C13.18,19.313 14.502,20.177 14.559,20.213 L14.987,20.487 L14.992,23 C14.992,25.335 12.373,26.51 10.061,27.546 C8.945,28.046 7.418,28.732 7.19,29.248" id="Fill-58"></path>
            </g>
        </g>
    </g>
</svg>